<mxfile host="app.diagrams.net" modified="2024-03-06T06:46:17.795Z" agent="Mozilla/5.0 (Windows NT 10.0; Win64; x64) AppleWebKit/537.36 (KHTML, like Gecko) Chrome/122.0.0.0 Safari/537.36" etag="umG1YoDKWxc89gs34hLR" version="24.0.2" type="github">
  <diagram name="Page-1" id="9H4_WC_ds_PhKYlhuJGh">
    <mxGraphModel dx="1434" dy="772" grid="1" gridSize="10" guides="1" tooltips="1" connect="1" arrows="1" fold="1" page="1" pageScale="1" pageWidth="850" pageHeight="1100" math="0" shadow="0">
      <root>
        <mxCell id="0" />
        <mxCell id="1" parent="0" />
        <mxCell id="kuDSRMg1rkkwXvvgDkXc-4" value="" style="group" vertex="1" connectable="0" parent="1">
          <mxGeometry x="40" y="80" width="180" height="240" as="geometry" />
        </mxCell>
        <mxCell id="kuDSRMg1rkkwXvvgDkXc-2" value="React" style="rounded=0;whiteSpace=wrap;html=1;" vertex="1" parent="kuDSRMg1rkkwXvvgDkXc-4">
          <mxGeometry width="180" height="180" as="geometry" />
        </mxCell>
        <mxCell id="kuDSRMg1rkkwXvvgDkXc-3" value="Front-end Application" style="text;html=1;align=center;verticalAlign=middle;resizable=0;points=[];autosize=1;strokeColor=none;fillColor=none;" vertex="1" parent="kuDSRMg1rkkwXvvgDkXc-4">
          <mxGeometry x="30" y="210" width="140" height="30" as="geometry" />
        </mxCell>
        <mxCell id="kuDSRMg1rkkwXvvgDkXc-11" value="" style="shape=image;verticalLabelPosition=bottom;labelBackgroundColor=default;verticalAlign=top;aspect=fixed;imageAspect=0;image=data:image/png,iVBORw0KGgoAAAANSUhEUgAAAS0AAACnCAMAAABzYfrWAAAAxlBMVEX////u7u7t7e0AzP/19fX5+fn8/Pzx8fH29vYAzP4Ayv////0Ayf8AyvwAzf7///v17+7/+/jx7e/z8Oz58O36/vtG1P7m7O/l+Pzu7utZ1fn/+/bb9vv29/T58Ozw/PvU9P7X6vFp2PaZ5fuB3/2f4PW17Pwv0v7N5/HJ8f265fPf7PDN8/iC2vas4fWf3/RZ2fnE5vOB3v5O0vxo1fiq7P2Q3PeD3/+f3vfl6/PB5vWn6v+D3/bl8/Mm0PfH8P+x5O/T7OyNte7gAAAemElEQVR4nO1dCXvaOta2IThIshbb2GADISzBAUraNDR3bpukvf//T31awQYvJKVpmq+eeWbiYnTQ66Ojs8uy5NVq2PxqtNSdLa9zdXMmbxrqxlHPtdXduXpQD6Gec9SdfM4+Kx+iiFQ7O8TrkzorJ6WHsP6i9Retv2j9Rev9odUoR6uRHbdRPoWCIQqnkB3i9UmdlZMyaLXUdSav3I2+axd81M4955Q+d1ZwUzjEmyWVB8ZqyGv7Zvi1ezPyMm9G3mzfjHzOvNzsEOfZIVq5IRrZIYpItbOk7NcgdZ4l1SondabuNH+Wr3q7lo/zSyG/6nND1C0ZOyejfopUnSwpJFW1wDWpV0frmVOoJdUoIvUXrb9ovQgtLkzQb0KrUJjpcaulfKNc9DbqRa/H7ANSpVI+S8pmzMuQOlbKF5M6lPLFszJDnGCvrX0u+5HXb18up/f30+Vl6PW9Z5Lqe6PLbw+fP09m0+Wj1+dfqSB1+llZOSbM8nHjCO1U3pSrjI2DBU7RhwmBGDabGAP4dH/JAs4djfyqKyQVNxrsYvwtgvxqNpsQuzD6ThHaJ1WjnTYqF3jprH6L5YMGiQsJ4P9pEsD/C12yXnWOs3xYsEwgxIDwCwD5PzD9gMpIlaD159iJIZ1iIhgjd8FkfHFuUacaLWZfHX6Vc+iUOvH7RAvN3Cbeny9nM5isKKIVaCEHXRHMufHgInhDfwNa6okjx7VfglbcmUEi1qBiEcBxkn+JNeXOQlRC6oyLJrRI3SbcogWB+La8I008u7AblWidYlZ5tJxfv/+yKxfI+Ql0XJdPGZIdg5E5coy2YGWHGCI6mmw5UkALm5B/XSCvvvuRNeKX6kBWwa8t0oGc3IMV9ueLrOo8gmII1HObih3cZP6h1/tws063cAHxr12WewmGVOeG4O0aJG7z7mE5GHE9InI1WqQXWvX6VoVVbZ/eqj4v5eMqXV7zMRc8NCESFZAOBHZWmwWd1X3Kp0wUx0Gy7DvIyZFCCLUmUC46vhA5N0ZXXRYIVBFFC8ldBMJP4lvPk7zFunyNLDmwfApshJNYPo51iZVUThg1pHw7YIsIb9cjnFEnzE+BDlIjrlKCJwMW+IaUYz3qj/CAvi870aGfxNQgSP2hY6YQ85k7UoJrdQCnI4pyU/iCuWplNI0Bchq+IYUc6q8UWnDyvtBCzkhCAuEt25sC3/K+AEw0JGTBV5WeguPQBwMkwClX3C2UJ8Wu1Bfh6PegVWE3NKrRqvZq029Kb0g6h1NANJxo9QAS/I06agifhokBq0lmSiPbU4xYKsACcL4vt+rcHS9z99vWubzOHHmdqTt101I37exH+rm2+qhV+lx+iFaLRlBO6zYoGKLl9H8QoyTAWV99wnopUCpH002v+8KodZw8KX84hXJ9J17Yyv4kJzer2l9b9Fx+CD0ryyBeqi2cRN+KXaUtWbSYFBolWlcnMAm5GUTRQAklrs/iGSoj1YOKJZld8WtP4HMy+tbeklHj5vj4UJY92/KJb6EE6zOXPYXmCKJ0qjc40kxCvuoutSjjJvicOmWkUKS0sGt7WP5r/zQ70b8CUlTPuaAumQKiCyKsSL76cDSiCyx1WUJwOkColBSdKSPqJnhHVjVbN6Ui2SufQujQXqpFOnyaq2UJAIxCWkEKzdXusQ7eEW8Fd8KCJk1UPgXEFYazSNvZ0KgUcDKUvpxS3rpUaG1Yxa99DbSO8Z2Ku2N8px0it7e0ZApb0WsnOOOWIcRds2pSSOlxzad9Na4IrUaW1HN1ID38ib3a7YLn2p7SD6JOHan+TFmFSuDDqdeuJjVk2izqt3MfncAHXzQr/XJP7NU+eDPS/wA2rIZlEaIPOw8p/kItVM0EcaAdEahAOz1lZEHzm50TML/Iqg5dyTETZteYI46DtnDBOQ1rSTG9M7wnOzFUvqh6tBAakK1PIhECvppUHOjd4D2hNXKl8bupRkssj1GakVsTvocOq0kFircgekdoad6qQ6tlheluS+Rm5QwVya0MKZ9pTnwltA59sr8isi8jphytOlKfsnEdguEXVENKowVeGNnPJRFUWLq5WR0f87EP30yhdppn2Qss/ckJqiRF+xutnQLjUYVfueRHxaTEEJSqPYFcFK6OHKlyX3ntrOzX0OW3+++FmnuUGaKAFJoqtQzjB/pJowDGlbo8CpV2mnZ+xk48Rgf69WhteauTyhWWVlk+FvoOpe3NpTtFTiRvuFE9QhWkRCRJbp8/hdYbsxNZInGAVWjRHtHhn0Q4HczmCD9VWtULhdaMvSO0gs/Sqhb+89IphKmMeAGStkQoA/XU6iXuQxVac7Uh3L8Zj02N3XCMVzu4l5aPe1lKyqETvm8SIeL/k1FF5N2qUCPgOn2pAx1N1WZwExxhVefQyv7ael+9QSvvQC/3apf76s/rvdpsKVcimJeS8qYycA0IvGXqk5Bd6Vg2GHjF7n7H8TYKrdugPrLwPF/9ASlxvZK+NcBSZK9ZCangVnq0ABGWtCLlIzrTJmNamkTAnuQj7gi9TialnVsyh6v+NNHXUM37LigixV9al2iZzrV3ZIZwaKTj/pOghQpJxYL9IAHV8cSCWf2ieOJp0ELKoiF+XCQOKU00F31CFKEOY0EQXPA/QxUvBPCGFpO6lnoGTt5VrNpCWr6szrNTiOOAs5JFR1PjWX56Som6ACFpGsk0HM53+HIkotrIzpNiN+rz2btCC6GpCvz9CPgQSFzt4MIeX99M/0lSsPXRlF6Am05p9M/0x/XKvui05QicVDCRC3UXq379fPlj87cqpPxBEjvVWuTnjigNQFZvcbVORZqgDGHXwwVEYi7fMAHm+thketmjVERkmQwNyVjSqaqijsmXL/JqVznas3ftI4YYninB9OT1H+f3CWm6WlCB7f9Uo6WMIgDls64LSDL9/ugNlRUOvPZJf23pENYeE2g+Lt9/7eybscvfjJ19M7bPUrG7ATx7akJQkJz8/Au4IP2k/kw6R2VSZmfVLv+1Rfz2yjnNF2vNIyKJGdQz0xFo7bLkri7eTQY4N2NYZ/W/6FA2ARG419YgJhi7fGcEKd8J1ZXyTZGvPRfjVKMrSwoO1y2IPq4uhki4Mf50tLg47k2j4uXHETLGDUkXH3qP3W5DJG7JLQ/Zsd3odru9yzkw6Ta4iQs2BMBHj656iHLT5BXz5Y8d9zn58s48whCIHU3zhP5/yMVOMvuy1GjhS47RMC4ihehcBdian27nsyRVO4RciMCwXFOoqPNQ8JbIz/wj8+X9Tm+WunluIBhCl9yt54NQMNBaQyjdMu0SUkgld5HmrUUtFA7mnyPg8lFgfmhIZr2Of1jId8L8LXsrYKytElburc69mfxze3qc8O99SERe0R5a0WzeCyltBz7fKa/1v6ZxJal/idLZU3ET+0NKw958Fu0PzY3y5AMS/p4XzaqVfa5wiFpd3ryZunz5/KqPucBaRK5YfkQroHoh4iGSBvJZI+aCSTpIcdO9FrGzRglaPrdwsFJD1xdi8DMuz0XCvFiJ0qxWa5L/CSCMFog+U/KW58s3KtE6mVWNBlFGrHM5jFMdJ12iLf3OPVZZcA/M9st4S44eaLObjGNDCqEZl/qC4YiodTRsRiBOLqmfQ+uN24nBvxNIMsvEJbOFTkwDk211gT1uSg0Cpq24dAqKlK39zs0nZkhRS24cxL0Mv88yxLhBhSfd4E9BK/Y7N+bXA1nF9GnhcIE+0g4/ZIYQsQ3hgIYLT7JWFVqeqDMQC/kLi33FWzrRjQi7M/yeSPVNMTJfkzeM+fFvzJc/Fq3YXyVQa50cLDe9X3lSVNFI7PrEXShSMVtKgUPcCa0QJoYUesJKWXg0vDVThvpG8KpD+//ep7u1D5pJl/knjCxoX31RWni5V7vCB6+eQ2fBV/6Kde0hgNEyYOq50LlS3DFBklRwTpQrLx2hVn6I1Xg8Xp1Rx+M327DAQEKLweRC/VpPR7OX5td2zpeJq9U5UYq87BRFFpznzeqIfPmf0bfQN60ycrUbRh8kV+khRljGdLC0YVva5QXwFdsqQbHNVv9LuKED+XMJt2d2TOAHayI1UjyQpIIllPABKzbKEt8nFxEEaj3Kso6T61s5Jvx5y6fzYLRRgtOvXDHKDIESqUuAH0LbHo70mkmD3apj4wkWCMgada5ZTMbbvFM77up4Y4QEKbZRjsAZ9WO9ZDjPov5Sr0euocEHVi5L7Myq+x12oviIcbCUSQLgVcB0UxAzxFyKnmbC8Wl4M6UiwevYRPbRcM15CkqtXS0oDNbSWpakghso8yTgd69h+w1Zcgzxh0ylFGfkM8auRDMA6eqA64BD+TbR4mrjxX1T++dw8sgOqtAdxU5wxfXSgdSQUrhhvqnc7KUHNeoiD8IzOTbn2o+RDn0/uFJ5Eik62LzYKmmqUBHBHK63ilbMVW5TTHgVCOt2TzGhE7X4poEfqA0SEoGc5C0OFjlwMPC9lfQMWr62k/BVYLNIGgdwSg83L3bxUXmgOVw3wdvKl9+tRH+spwjSAcvS10MgtJDBe5AydqurrO+ZJoV66T5UanMDfM90JKkG2wBVVmbH46baUHtoP/lYaG7BgCOfiuWIx/Ep8+Xbp7takZnhY3tY+IQn/c1c5fL0o+nuwbQ4lAEwifQzw/YjTGX2yX1fh7GjfvFP8R5TqfkSEPWLf8qLrlPmy2vTpvnU9W0l3vNvJraDexVN3SzUZOEN0qTYuiTwIxxja6ZIIbrG0hwgI7WOmzf2LryUJdWwuzLwxtfiHL3BfPnGGZIKPFeKVnwjytLP9N/SldBAiii+WAKZJmk59rgqsgHGsSKFuiZKK1yxnFQcl/Xf8ldGk0HDt2cnNobfZbkvaN4KAV+CVidRM5CuT4KXvuatzqYisEGaE6ZQtdgVNgMIS2HNStGy2VJtz3BR0Hrpd6Nl9xNVoiPSvEt5K1iqzV2lH0VM84yzqgoDcdG+Ug3KUOyryDaQvAXHtl2Klt3ZCCoAbryCWf1utM603TaW22EJWjEju+Y9+JZpUuh/sDLGCK80Wo3gI975l+8uqtCyx+q9kBPm2NTahEdaWexaJx114gMra2t+xkKr3E42YuY5mtSEGBOTY+PHu80ALv1yUvzq3El1w71+nqVbZTtm/Q22Mr+NX8LKWOa2tuBtedO2Ms+dyxvt7OPq4u45M4Sy4G1R84RCLacJgZeI6iGGh3pp/koDTQqZaleuIKQ0LCMl/6ZTxcJzdPBrq2Z1ln0uB4yxrau000M+LtTl59Ld5H5XbvcCr7YaAv1jwlqy6EmNsNqPdRxcK0MKUVNPTOYqlb6UlPVdseA8M6s3ki+PVH8MV7QEsQpXvUarp41BfIn4RqdGGNcG+8c7tDQTExIW5AvmSMnEHgLnqAat17cT0Vw5CL6garQsT/EGX0c7UtfVQp6/hB1aVqhYq/nZyzBGIVrflG+2lrd+A1raTf655oWrhF1h0Qx2pMZ1aSRw7BtSdGp4qyi7MkdKGvFY5p2/Flq1up1GS2sQzbBgCpkh0MZIeVlkodGqk/LgcUvKMW01zAorIcU3FKmaEXxWPqv6yH5ebuk90c6K/iP3RCe7y4R9ZSgDtSkW74l8c+pt90R3QLek6rIDyXaj0g5qcT2Vb79yl1bdS8Bd//DXOm27dFb5PTEHzOny5dvfdK+alV2lbxnrmRuVSUbfqlmJSd8M0QXbDcG9rVTtVsqPD7/1f17fOnUnvMbZSPXCIk+i/1qWj7O6vE9M/hVpwuvYkPpYxVuAwI9GonfWcJvABZLO/pIxpHz+XrRTiIRvM19eFp8ADDdBKVr+j8zmR+4Cs0+uKpchaK60D8J/zH2y2v3aPKnYZhu1m3B1+ZehVc5bdWhxnnWkq44bgtywLkGrYxyksmdS85ZpUkGlDwIbHwRinyVTad6Ca1aIFlfj+IDKIE3DNxrZF+WY0m+FkxgVohXL2gkuTiIZ5IdPgdIwHX9ckQZOwFimCSELrVSWCYlU3Scp5C0nRI1EO9Lw4vfly9tZKX9QqoTog0x1IACkPU0/L3rZRvm1EqV0keZS6UyhkP6l3AWN75SrH1gVfI6kKw3gJTtIzZeFoampy56h+nx5+3gpfzqnNb+GdwCrTJDmN6+17xAfts9leSvEy34C5N72tPswIrgIMP5v0VCNNGxdQgXW2hN6hPiov0+CX/1vxMTLkxM65fllHbwZqzpfvnL/teOI6BUFo+tOnH8zwsSTOX6E2WPdTfIqMKT4lgqLFiN86hlS222ua3fVXyrmk2GCoR38Zwr+SfOp4ccvzJd/hch+w29E5r0CvO52ckNQFCmI+MpiOrTIJ27v4olF6zDtIUd1wouXKqsGThnf8hRa073oa7+75sJTb4eRTHR6o9FXccXhxm3qjQ+Q+5EsXzKx6p7SlfB/fBKPmgdnnYaJ7Pci3MyZQHx/hVFP1I5Z577owiLXIUiHvs1uXYFJJlaNuJ6PRlMCgU6rxEkoUyTeMFqNFnrA2LiwMJmOMmjpfg+J2Pc9fWPyICxhaq5VPY8Bi897PbR0P4iY3ctljPHcEx5+orJGLre9TSVW7lZ1hQ+0IMb3SvnyWbQqM8sRWhgBJELrZDYwQ2g/HryJfbsxdLRxHG1zbMJ2MJ5kTiiAYDJmQ2S6Z6yUkoGfkBiP3csUFDBDuhsxHcyamGz1ELKgKPSfg9bx+fInrUpGowlnr+0GB6ObbnDObZGBYBxMcDeORd/4udwDCfzh70RvzFYfE7LN32KZJAKmbUl8KUnFY6yCvUhYnxfdq11WMMcMbkLr2ZbuEVK+KAUu66t/SRad3xFZVNs1wbXJzXxE6VomQYAJFd87i1XrRc4woywp6tFA5AY+nlHPy5LSFY5kE/gqN1BtkPCWOqN5IlK+doswXbLMTzphbqCdXbJHV8kUWj5bPuZWmsXFrUrDkmWYwAXJnMgWGtpzf+ZzxV6i537O5Z0idO4bUiiTd0pUXkPz0Ve5WvSbwmbCoYKyTapCky/gKVJJK8/Nly+f1a+uQqetB4IzBV9GfhNCqUCB0+9MoF5bXrk5okl5M1lWBfBU5TQjREdQc242MZ+LzAe+seR+7du0E3NoOXw60+yhMkQVTZCn7z2q0PK7WtCnFVNQpNglVjHqlIMlTFIU9ubpdtzdxiA3YbS3q799tGSSTesqFStRJsZsgXNhOpkuHhuMXdyoXQ48BJX58rEdP0FVK3wdBKzxuJgmKTTnYkjtSqZG4PRKWumvhdbhuM/Ol29otCR9FtxuwL75J2QMdsnd5ONS1Q8DqXSVoiU8rlonSb5+nEQE4pxeJocELkluWb7LxrFoHZ8vX8Bb+su1ndFqasgEffucdbo3CYHZilXV3Ud0LdCCjZB01e3a554q42TqUjdebHe7X40AFEaNOJpr/yQkDtXNI+OaW8vJvNvT15AZxE+ob+2G0LQu/uWAVQcqhIKVRndJspmsZ7Mpv2brySZJ7qI0NQcmlV5kctP1yn9thb5lFfza39xfHp3H/kWXHCQs52csq/OUDIL6IDu1xMQhNJVfjexO/F6q0IX9Z3PlSiU2cj5R9Ypgr54c5ssYmzt/8kFFNtBZE2Z5A/8FGuObRUueRnMv5TKc9RbriFsmUmWtXl8llxRdfOEm60VPGUPwel/A/Nlo2XEnUc6a79RjF/F4uU5SgN0aeVRwiSWaJvc3426HefokF3h1UMjw6mg9P1/+AK1MErvq1Q3ckTrpIQ48azSYTzeRaIBk8mlNGb5w1eiFum1uQCBfpnez6Xwwsjwms+xbdOBCnbx5bFb2MbZbway2PVlkt5byti65Bu/t8s4wuY/a+0MMB4qNUm+Yec7re553/ni/NYqIUQ2grOERud5a3W/CL6tHr8+/INz9aohhq6+rtvvH/NqiWbUPn6sa4vh8+UaG32rfzH4SO1W5cM11kCmxbPhqn6Y6nIW/0NGo1+uNx9fX4/GY/zUahcZPMxGNuqxGbGe2+pipDEzVIyn7axvPWR1vrb+8RWeq0d2NX6Rg99QuR+Al3Z2vIp8z3eYJKUjdObfZvbQF4KIwS/dPshOzaCGknVHjoimInFWx4jAh+6e2zbXFgy8L+waypTwrCt6/K7QsqmPLhaXhIUIbIHs6gET4lbdTQD3p4uPq6rSEVFeVf3yy3lN/eaunPAh3QeFK5KR0GyQRethOAelu86CZBCWkmKpDJOi3dcL7Ff1OpZsYgM8XJeZnrOp8gChioqbpOzKdKsmjrytX9kkFIqwIiRv+4n6nRfnyv66X7pWcNPxSTmqOdYXxf7qX7pA9KE80F/5eWNLgVu8C7jUbHhlZqDjP7oheujkm/Jl8+ar9l62FSY2bC6tQZRSkTHsHQFbyA4RudLcN+A3tn9q2JWXSwZfnR+ryLz5jJ3u9Ssd04lacQ2ayKQF4Umh9wCosKbrNo9Ie4LrQ8eo9dUzXSW5uZTf+ka6rhp8ocmiPAJU7F3lVpHQ3/vW7Qktpn6ACLa5HDHRGAJ5ROtKHWXMVzKkghSzdnuWt9Jc/OgZesf8y2SUCyJMeSrZ65IiCJ6L6fE7pk+qxRIBS70tJUbVrRhW8Va8DHZ8vn/3Hqg7ax2YMFHq1u4pRogq0xOD9dTOVqXLEHJMOb7zqF0N1i4iKEwF/rm9gbohX6S/v9NSZwXXn+bSRLldt6mY07tQaVpKK2ZNCyzz3i/WtPBOUv5m6fPlKXV75a8iGVZNqC3eEcm6JL2AszooqJyWG0OmCoNLyKSR1OKs3cnK86AZlSq6rzREvzHQEx59QHalGR6FF3pGd6CgfJ6hHCzmjXT5l4tSidRxv/VlotQbq3Ph6tBxKJ9tzvuf1JwL6wZ3iLX0W3pvqL1+dL6/oZ4cwpm5PnQiY7Ev5gyR2pDPiDVx1pMyJgGmRVW1Xksr82qyULyZlNory1uqnO/e11XJV/wevmtSZ1zJHokuGwV+8sIZUR/ceKTz39eSzsgr56KX58o2S/vKB8sekNaSG3bts/B808RUbVpJC+oy7hO0xQdnqeFud8IpX/YV09uEqO1F88rhNljAn3MF1oXa6JUW1nfj5rVg+J7ETE5WQO6iaAvogm6PKjPg5MT0PuBaB6L7HZkdK+yDezjlkJ0CLyVbf8myUUh8E/WKOqRE9PQdEpZCIwhVU7rExJelL/z2hdaMiYKKgv8RFhyZQF93BKEQh7T3pRYnBgpb7IFQoEo5fObJfKg9PIeXjsUp7JMgpFL0xGqQm2w8mMnSIuJq6LZuj9DwuJBWqFqrk4icjC8eeInKYFn523mplvdqtjLd6z6udey43hJP9qNUyjW+/DguGaDmijEWj5U40qWErMgXrbjTut4qS2NmNiqBt0I5UuQ/+WbM6Qb78S73ayHpQ+SDJrnnyjpTori5yRET2FpwiqvLlbUQ3UPeWlL0nrXDf3e93VJ2UuyiUJceeHH9MZEE/Z+cEzK+xqlvIuVRHW8Cve8dCIkTD6fbgFYDn1s4cQVyGb1tlpJfICZ09UkvV41KckPqO7ESL0idZpkJIN89biM7J1taBaY9mYtWhw5UKragC4n7qUZSfQtxUHPv5naGF0FzKeQiezoXnGKkz7pj9LXU1UnwVTsL8FMRhuRGU591BWVLW6/iy6SwSPZnpuWiiLkqgevT3oPVLVqIUJtR0fycLSqk4446x68/A3RmF5GPf2Z9CaHn30PTmAhB/WtoB84ccRooGT7JeEeLPgiGrdKAT+yDs7P57Ch9Ewf57ic2co+ni8nLxcUJkINqswmiVswkVKQcNL65TDReWuXDJ1e0j3xjmiSqUhQSOFFrZX9vI/toT+iCKkGmcQN86oHWx3h6VAV03m3Iqiz7nFBUmsbeFwg6y1QlQfN01/fCI+8Mvm9YfmS8vh/DtTrJXbmIuTOAspE5YqGBzUg7tJYXl/FJ7eOgcLpk/2/KRNz7ii2fvzDVxBE8TRNdK8pegJZIivqZN3Xw2CxVoujMrfpdoNULRiyQHlignhNFtJyifgiYVdJZPcC/DHjQx/LLfMf3doIW4/pTmU+Rxuv5PaAU1aCEkGhzcZkvUBWPipMcNz7eFVoXd0MiOW2E36CGEM/B7AiHEokgA4nT2/ZxjZftFiskeqZjfsu58I4p+oDhBy8WbD/IUiEJStWgVkDo2X/6F3uqXPOf1zxffZrN//rn6/tj36NnwWUN4Hh0sp+t//ll/u+U3v8QHX/HcK+XL756zuS6PuLYwDOK4EZse4IcsaxSTPVKNRhwEbZE7j5CI+VSR+mPz5bNolZOqOiuqlFSjiFSdLHnbduJftP6i9Rett5Avn3mu3vw0+fKvQOplJ8e3CjbUo/dap/S5s4Kbn9rWX51UHhgrx4Qv8Wofs/8eLvAqd/8rkiqNLDSKtdNStE5v+ZROococeUVSb8tO/IvW/0+01BP146qPfmYKJyNl16N1LKkCrSJPqgitYnlY88Ib5WgVit7TkWrVkXKeR6qet/4PNL3om6+LBacAAAAASUVORK5CYII=;" vertex="1" parent="kuDSRMg1rkkwXvvgDkXc-4">
          <mxGeometry x="38.64" y="10" width="102.73" height="57" as="geometry" />
        </mxCell>
        <mxCell id="kuDSRMg1rkkwXvvgDkXc-5" value="" style="group" vertex="1" connectable="0" parent="1">
          <mxGeometry x="380" y="80" width="180" height="240" as="geometry" />
        </mxCell>
        <mxCell id="kuDSRMg1rkkwXvvgDkXc-6" value="NodeJS Server" style="rounded=0;whiteSpace=wrap;html=1;" vertex="1" parent="kuDSRMg1rkkwXvvgDkXc-5">
          <mxGeometry width="180" height="180" as="geometry" />
        </mxCell>
        <mxCell id="kuDSRMg1rkkwXvvgDkXc-7" value="Backend Application" style="text;html=1;align=center;verticalAlign=middle;resizable=0;points=[];autosize=1;strokeColor=none;fillColor=none;" vertex="1" parent="kuDSRMg1rkkwXvvgDkXc-5">
          <mxGeometry x="35" y="210" width="130" height="30" as="geometry" />
        </mxCell>
        <mxCell id="kuDSRMg1rkkwXvvgDkXc-12" value="" style="shape=image;verticalLabelPosition=bottom;labelBackgroundColor=default;verticalAlign=top;aspect=fixed;imageAspect=0;image=data:image/png,iVBORw0KGgoAAAANSUhEUgAAAQMAAADCCAMAAAB6zFdcAAABBVBMVEX///8zMzNBiT5Bhz9Biz0rKysbGxtycnJBjztBiD5BjTwkJCRBkjlTnkNBkDpBlDjl5eVMmzpGmDPx8fFBmjV4sW1mqFjN4cmjyJxAnjOZwpG/2LonJydAozBAnTM/pS/Dw8MYGBj19fW1tbVypXDb29s/qiwAAACKioqnp6fX59RiYmJERETR0dGenp7V1dXp8udZokqHuX16enpLS0u6urqVlZUsfimCgoJmZmZHR0dVVVWvz6mYzZGUwIxxrWXN3cze6d5gmV5NjkuGsIWpxqiTt5K60bougymiwaIjhReXz481qB603K0ppwSLtoh8xXBXt0Zuv2HJ5sUolhNts2NOqUBlfGuUAAAJKElEQVR4nO2caUObSBiAgwY0RTQQc5igBqyJiRpJPGJr6tFr3Wq7R7v7/3/KznAzzACJpHThfT5UG5IwPLzzzomlEgAAAAAAAAAAAAAAAAAAAAAAAAAAAAAAAAAAAFAgut2sS5A51b725jDrQmRMVeB44byadTEyBTngOF680rMuSIaYDjhO5A+yLkl22A44TjjpZl2WrHAdcJx2XNDk6HPA8f3TrIuTCX4HHH+edXEyIehgLeviZAI4AAcYcAAOMOAAHGDAATjAgANwgAEH4AADDsABBhyAA8yv6UC/WuvO+5n7+7lPU61ZP5I7qB38rOnGA1XktZu5Zngf3k+nH+7nOkv1uK8d4XWV5A5GgjhnuRbk9MIsE69d15J+RP84rayurk5fG4nPoh9pPMep6kFyB90Tcc5yLUh1TXOKo6qDZJ/5VC6vmqxMPydcMBvwqnUS4eL0Ukzi4PBYm7dci6FfCbyvQGKShZ/7D9NKpWJJqJRXfktwGjvUbAt+BSwH+pG/YMtckDrgAuXBZ4tbFX94PV2pVFwJqEK8v485Cwo1nmNBdzDg1ODbtDfLWac+vREoZRKOIsJb/zwtr6xYEhwLlei0oF+JbAN0B4GwSVSuBamuCfSyqTyz+n16ZSoIW/ideZpwqMU5YBVM5NJep466O8Jbaqt8/+GxbCsgJKxOV+lp4YwWapEOosJGuEmzt3AZc3eEcPUzXiMDZU8CaeH9Q+gstXNGqLEdRIcNL6yl1U7G351w9fv8uP6qXKZYWHUrxEciLYwiEwHNwRklEZDlukpFwXVEmvZQ1a73kc7G4ytEmbBQISz400I3JtTCDvSo9sNF5HzlWpRLLUnZcPHcSGh+2VxfX6dIIHPjJ/csV/2EJ/Ec3CSSxnH9lzeTo4Sn4gS37rW2NrEEmoWghNfuWdT47ycc1JKWS3x5+7CAgzZysGmHAj0rVEgHSarbr+VAFCj3zR8HG7aE6FCIccBTXox2wNPS6lIciCeXh5Rm2R8HGxsbCUIh0gEvXL+h9P+iHAjHXUrzugQHqjrCL/sGkGEHCpawwQ4Fu5mMciDgLWjWcDihA2sEF27I03egnTuXevo2eMTnYHvLkUCEQrBCrDAduCNSstPAdKCKI/sA2aFL34G/+3kVOBR0sEWEAq1CMB2412N2HpM4UK2Zk47Z7xoFslX/LF0HYnB8dBPlYMuXFei5keWAD/RwGXMoAQfWlr1hQ5Fn+JeBd0xNIQyCDoRu4Niav+g+B3uKKyEqNzLjIHCSQ/pcWsCBeoRemSiSJCnjIRpGOMd47TqNIfRCDrbtSIgOhXKqDoZ7EkaeeA6ElGZYkztw+6Ttne3t7QShkLIDhXAgcpepGFjIwe0OCgTSAiUUluqAF9MZMi7qYHfPL4HeYyov1QEvrKU4ozhYxMHOzh47FNwKka4Do4ElyHIHdV36F6kuOC3g4N3+jiMhOjem5oDH7UKpIynKrdlDSHlWeSEHu7s79FAIVghW/yDQqxkk6B9wnFkwvTVM9+Jf5mCXFgpEbnzFigPBWy87C06VMB0Iy3zEZREHvV1LQkwoMB24E/ahaVb2mAmNM5f25NtCDvb3d51QiGgm2Q7sUdNAJOcposbOy1toXMTB8/6+zwK7mYycQxGOQyPnuDmURAugP8tBr+dJYFeI9Zh5JNprMXNp2vEyFhoXcPCEHPRCoRBuJjeXMJ/Ia0tYaAw4IOapRxrVwddvvV4vQSg8/jG3A/Xa+YTOfAt7ATQFB+H1Cv+yv+eg9Oe3515MKCALX+68OzZItJDDqaLXAnZV1oQ8YwE0BQfUQUjVm/f0OSh9/ysQCrQe09Zmx/9F1JV9AuLx99o1c30y5f0HtgPm4/ddZ9FPCBz/+vwcWSGUFvlFccvulHXkw2OWuHT3H1gOhBv2rJy9eSjooGQ8sSuE8mVC2YcR3FBDQt9PEJ55dt/Pp9dxxA5iZiOsTWQCGSfDv10LwVD40mB066tvNOZ9Zf39gwErLfS7818sgwEai4/i3oQLr4Xryvfet3Ao7OzN2F/UPaFGd1T9rlEXxoWLbqLLS8RZ/zzJRobTkxPajfoaCoUft9FfFO4fc8JJdJ739uV5FeFX+oMRhtVOOqHw45/YfZo6cV9VMb69D6YFXktvGi0dUFpwKsSPf5vk0U4r9FIg3SedHffSAq8lCtyfzPeeGQq93lfySEdWZGUctuDe1+TTAk6rstSJhJfw7hnxRFaDIZ4BlCVJqYcryAjf1/nGgai/pqaaClPGeHoi20MDrwvJ41tZlmSlHfpE7VzkYtsjgu7Rr5QK42kp+NpbjgupE3pHLed/EakzxnXA7i2adUJhdZxyyvCOuOiO5FNSBFDwy6Hgb+PX5NBAKqfM6EnQqJspMpwW8kdzrNAbQ+fQXXgjc74wyEQQxAqRSa7bg9kervQRw0b91mwxwx3H3NBU0PXFDBsfcFpQ8ttATGSZmgiCNMeSEhEq/3PqjCjXDcPw5YB2nttIvwOj1bKaweZkrCDkxq2TKQvjoLOnjEtmQyFLFm6qKI4DRWqgHw3cDMiNBooFlAotCQVzMEMthbV7Rm+iUZRiVoeCOaijlsJ5RUfVwexBF8xBw75sk5ai3OGfBXNQl6Wx23E2ZjOzqSiYgw7OhNKk1Rn6+k4Fc1CqW/sqcQehPrM9FM1BaYZaRdnsIsjOiLFwDkql4axdx/0DJEIuYk70MJpt/AQGPl4sB8N63TenZqA+Ix4wFstBB1UA3/FGER0MFUnxJlEN+3/FclAaozzYsppENGBA+QA3DAVzgJ/DkhVp3BiPZdxdMuePCuagNJTc+QMkw5pCK5oD9EtdUqyJpFZB+oluBvT3D4yHoX+8MMmzg7bsDZXJPpKLgcaSSn5X3AzZW2udydId5S26ufZKt5MPHtyNBkPrQUSSDmtrTp6wLnLcwP+GAt7ei5HjlTablt0YymRVsPbkRK1G5gfjFk+ZbJM1wdqfdJvrNWc/w2aTuFarjuR+70GIprv/yNqfRNmalnNmY0W2HuQwJuaoIb/9IiYG3m6B9+nOlILtSfNj1QA8oVq0vYl+zExI3aNaIPQ2SoXtwrSHDPRi5gEAAAAAAAAAAAAAAAAAAAAAAAAAAAAAAAAAAIDc8h/vAy08lBplawAAAABJRU5ErkJggg==;" vertex="1" parent="kuDSRMg1rkkwXvvgDkXc-5">
          <mxGeometry x="47.28" y="10" width="85.44" height="64" as="geometry" />
        </mxCell>
        <mxCell id="kuDSRMg1rkkwXvvgDkXc-10" value="" style="endArrow=block;startArrow=block;endFill=1;startFill=1;html=1;rounded=0;" edge="1" parent="1">
          <mxGeometry width="160" relative="1" as="geometry">
            <mxPoint x="220" y="120" as="sourcePoint" />
            <mxPoint x="380" y="120" as="targetPoint" />
          </mxGeometry>
        </mxCell>
        <mxCell id="kuDSRMg1rkkwXvvgDkXc-13" value="Database Management" style="text;html=1;align=center;verticalAlign=middle;resizable=0;points=[];autosize=1;strokeColor=none;fillColor=none;" vertex="1" parent="1">
          <mxGeometry x="640" y="290" width="150" height="30" as="geometry" />
        </mxCell>
        <mxCell id="kuDSRMg1rkkwXvvgDkXc-14" value="" style="shape=image;verticalLabelPosition=bottom;labelBackgroundColor=default;verticalAlign=top;aspect=fixed;imageAspect=0;image=data:image/png,iVBORw0KGgoAAAANSUhEUgAAAMIAAAEECAMAAABN+RseAAABMlBMVEX///8AK08Skk8QqlAAJ0wAJkwAKU4RplAAI0oAIUn19vjF0NgXQ2QADkAyTWkAJErr7/IAADpEVW1re40AHUcAMFbT2N06VG9bdIvh5uq0wMtmcoQAFUO4xMJPaIAAJk8yRmKwtb0mSGZpgpcZNleIkZ4AADliboGTmqY7W3YAI08AGEQAN1w6T2kTlk/d4+kOnVAAi0EQhk8RjE8FTE8Oe08MbE9yzJfE5NOLnKOMoLB3jJ+bqbYDPU8JW08AL08DN08IZU8DO08GRE8LgFBMYHgFSE8KalAHUk8KYU8Jc08GWFARsVAAHE8jPVw2j3BNsHsenF3k8uuT2K6z48ayzsI0m2ZYpn+e0rdQvnp0rpJ9wp4ys2SZuazn8uyK06ZPtHpjqYR5mJiCqJuaq66vvLwqkKsRAAASVklEQVR4nO2de3ubSJaHjUxVKBASMghJWEbWLbaELCV2nO0IEifdIYmTtLZnZruz25v0zux2f/+vsBTogriWCiTFz6PfPyECQ73U/dSpw9FRXuIdSfxE0yzTNLuDddWd36aaJkgSvozP7aE5SZpMVLU9lfVOsVKpNJsGQohjwZo45zel2RQrlWpRr5uWpqoT6bsgaQha+1IedKDoJJwDLJMuyJY5xRCVUa3et9qCKu0x+c6L71+URoqTdhYSpD2E4pDAzkDuW0JjD8mfWLJd6rE48RSp94kFCFU7JxdTYafpF7odp3BTvfpoQcCVATOwdpIZUkOrKyIiTv0dMQUDy4ZYmqpbxlA1udhEm7zedxvlFGQNpWYJW6vgvNavGWizwtN6tdHlWMCYydZkKwDTixkCm5b+1vuXm1cYiKonspo7gHXOcBS1d3j7obX5XzlZwc3quTZRklVtApqUMMOb6xZduwWRqOdWnHhtIFI2n+Dlk8InqmzAQs1pPs2TajbLlGmArdtHhbc/UncfUKm1cxhGtWubNKLrGn548qhQeM/Qd4Fcz8zcwvarNLXYU+vlzbGDcENXoz1BUMtYIwYK/RtsvSwcY4Tx9U90bYEnrpWlfZV0hfrJcPhs/NlFKIxvX2cZTbE9jZqA727YF/sJ4Ksnx8ceQmH8fOM+0S+uRp0P1h09AXjz6HiJUCjcDzMgMEinbFzVDnURhq17j2CBcPMqQ5VmGGVK1bZKMn1r2ro/Pl5DKFw/y8IAIVXTqlapi9Hw/nMQYXz9LEt1UEwaBKtJ+7zWh0fHQQTctGbIB3ZEQeA0R5SPGz57chxGKIzf/pihe3hMURl4naN7WOunm+MoBKd7yGApECnaVb5IYhMKC969PY5GKBSeD6kZRIrZAyUCZD4exyIU7qm7uB0irJrTKISbD98/QuunJ0kIY+rJw84QICwcJyEUxh8pJw87Qxh+PE5GKBQoJw+7Qmh9epKKUKAbO+4IAbwMFqMIBMreYTcI8C5UjKJyoUA1aN0NAvgQKkaRCFTz0J0gwLubMEEUQuE5RXXYCcLwPoIgEuGGYu6wCwR494gUgcYcsAuE4cfPpAiF8auNa8MOEEBwZJGEULjeOBt2gNB6G0kQgzB+s6lFY/sIragGNR6hcLNpo7R1BMjEZEIcgjP7+c4QWs9iMiEW4eblZjV62wiRQ4tkhML7zUrSthHAy/HGCBsOM6gQNjBHgjdxBPEIhfuNsoEKoU5shAnP1QgQNpyD0iAcmcRrC+BdZMeckgvjVxsgwAoFwZFmkN7/57gWNRnhdoO+AQxoEBqklSFmgJeGUChsUKFFiwaBvyTMhtareIIkhDF598Z26NZIJjaZYfjnqKkOSS4UiG17YpuKwKkNPZKuIW6Mmo4wJjXIoD71ArpFskoyfJ9QFZIRbolKEuTqGfwYLAJTdOs6gSC5IN0QTRsUO5Njj6WktRowwnhEikBkjxHrGZf/tWJKD9d6lVSOUhBuU5tVVszuhDHRUeJzWtFzZjKE6xSfMYh6VB1CUFYJxbdM8HVC15yKkFKSUE/OVIhW+TcxZ7HeJOCnxKqQgpBoq+egvXK+oGmTeL/vhmBWY6qEf4GWAuE2drhaRnrbl26adWd+rSGQVNOIzAnwJrEqpBWkm3eRFQ0CsaatvfgTqhXP9YrEN7otMeRe5Uw5MyGMIyoDBIrYEdb7Y4GhmniGXWg0fcasV214l9ixpSO8D4y4IYd6V2aw5EunFSoEwwyPTITpaQn4Wln4Y9IAiQBhzbyK02/LEQ5UFqSc/qOoNpkX2mapZcyLFHyZTJCGULhZ9gysIhbrl1pUK6rNACUCO4ruV3hVu9SrIh57tJ4lV4VUhLFbnyFqGjWzHeM1r51z1EYYUI3rG3mpIZgDoyJ+yorwCRliZVRvN2I39gg9LoMdCYKI+uCTav17VoTn+lRIfIbF4AaE3hQGDT25Qf63jHWh8EtyMiTT646yWPOUjpU0VMyM8LfERGj2fFSQySDJKlHNXG4ITxPSoJrVxfQ9o00VzeI3RGwRQeqXVn6yWc3CEPTipk7ZEf4eAzDtQN/4KbtlG6KKHrlLKDvCD1EPV7sVY20kk4txnmvWrPBmxn/kj8BPtDoXHNvns74AQXMktwON+H/kjTDR+iUlbIPLbYkEIlCSLf/d8kWYWKZdjTSa5LnKAxAzs83lDX/I2Dv7ENRp/arHlaOncTkvVEG8d3lgCnjj9R95IPD8xNJHCleON7Lmv9YG8dQKDbqWmrkg/apO9ZFopOy32dZyIUBNJnahkBBhzIgKwXah7a14wtfZJp4YgchCv0WEjNN/Z9q2bwQGvs+I8HbvCK1P2QrS+Hb/CLHeF4QIhI4M2yxIL5NW2ggQCFeft4lwd5sN4RnZyu023UiGz7MhEC4+bxMhwk97E4RrQk+MbSJkWmsrjD8SOhpuFQHQr3hiP0Oih2zZpWr4nHbdGesToR/GVhHAO9rVf1wVopdIckIg3dcGh0mD1bSFKlKfWyoE4t2Fw/f0CM9J/XkqNKvPFqlLVeIaQzLCDWmECdiiIDgSiGNwDBOa1WxL50uhOg2CJJM657XuaXzzsG5JNzIYdJ4kGukWtCTPtmSEe0IERaZzSOL7pHUNxk/dcnDmYZhyh9aPoaETNkrgGVUujD+SOeeBGX0UCZUwmEqCESARgaxfAz1azzyXIc0baa5WrMdzEsI1mV9bkz4PsCZ1orhC8f4wSU6eJJUZcq1sBLhOV0kGGrETnwQEksoMMkQiWUmzufQiC1/HZEOCw/Ob9DeDZtnd2rAa/U56bJi4bIhHuEmdcnJG0kIlgXydibBaeYzNhrtNNoXhTEjbJgkMu73KAprMWPMK49WumAIxjB5lxO8iSWxRIWiWNH+yabwM+e66T8ekriSHzfs5MhtiET4mbHsGnFIMFCGdatYWBJemdlLwv1ZkFx2HEL+VB6DqlRxMsAaoEOzQwITX+vZIiVlKgndvI4pSHELM9kJW4UpyOKAnL9N5hUX6q6sOBYxekgFR5tUYhOuougyUZse0otLa7tFN/8vVyLEJ31AtvSUqIetAMBBJAsI4tOMZcobSMWOi9AoljtKCAZi4ZpmXBLP4uKmsR4UlCl/gEvjrMoQAGZWqbsVGS5ZKiNoIkzLC0kz9fFZlOATmlTxis2rklm13rzB0Ws6y0/H3ZifdxHC2k2omrzCYFqRLtabyhd2ZQUVBZaCkh/Io4MgwHIcUjumc2LKZFgCW11xvkgxeYbBLMMxqCJp12Zf12mwUKkoRCM9rtVP50rI0gvjU0rTqtr4ZrHkQ2aQdozRRBeHXYMN6EyL4cqaqDcK5sHAxrzWZDJJc73ST8e4/Agy/BQn+FuW9E5OG7nk+XmGQq24w5P0j4KH0JUDw9D+JU2DNuGXLndkrTIFT0qw/+vt/+Qk+/z5eJ/hvwts0rFHT1/Xk4BVmKH3S2NE/fPUzfHu6RvAvojfBq+1Oc63/zsM4D5WRHNn5h+X3UXp05s+Fp1/+IPh7qW12jMAoMCevMMRcmYlOqwv9zwrh65m/Pn+J8SX0SzDtUXjzUG5LJAD1zusEk8FVdfjnma8+pzdGqlmblaMGkTmu8kAWNR8PrEbKdywWDJ9/P/u2LEm/JRHwPK/VjYoCoqdCeS9UlY1mp6upk/hCtWiWPn87+/ZbKoEz+BX6AyUpmv0W1toAalZrstUWJtHZMWf4+uvZmdesPo0hwJ/R6OtFUUk2V21nuRAPkmHHlvtTLaK99ZrWf56dzbPhlxCBpDojK/OiVlUI3MK2uOLJcgjB3rkz5uxamuCfqv7gVQVHvzvj6198bRFOuylfnFzNekDhyPZtbz0aCf4mBgfcb3p0BrppOkNoTfj29fjrN4xw9q/Cl78EQXN+rw8GzjQEsvgP8PXEAQx2FLENj83xNAYpiiE6el345czT/yrOf5uKU2LK5Q3SvXOEkFrv/s8j+JM+xu+eEZiW7BL8ZWeJdr5fBE7/CyO86GX/dMy+EGDxT4wgU4b4/R4QGPQC14Ra9nK0RwRcGV7McvgE0d4QgO1UhhfZ77NHBNjBCPSB31faGwIDMAL9RxxW2h9C8899IgxyaEcYxdxnQaKOOe8XbpJeEH8tLEEVmigSU+JAWwnidAdhlP0+UKEgOFLzKMJ5IdB5hTVoQ//7BYv5IFS27BW2fQSlTukVZubQJlVf5IBQPqf1JZkMshclyMgX1Yz3YDP4VKlF2m+E+Rjov3G1UEoMhWQ1hjlU6YyCYpceADOUMn2aKQdxTNY4VZLZ22dGQO4k+ycM+XYtj26aTqgaCtJDJbVvZK/VNILiIK+vkvLCIBzcaevpB0Z1mudnVbUaJDR+5gTAgVmuAFiCfl6O8UTKPf0sqtq5A7gQfZtJiKCXmzhUkq1tfUJ84n5YeKtZAQxFt5KjDWWUNNHqcGt1GxjGYOsfeD7C63oajrKVb+2GLIeMyoDcxyC7JtP61ayay7fCIeDwOpFtZnUv31y8YPUvajPGQAnhK1JTryjVmi5PtX18ct6VpGrtS1kvVkVD2SRHcLlRms3ioN632tv7Ljg5R0MVNMus10bDitg0kJMrbAQOhCwLEE75Y3FUrHcv24I62dvLjxIvSVKjIbStelfvFIvVx5V1Pa4Ui85b75ptrdFwrk1xHzjooIMOOuiggw466KCDDjrooIMOOuigZE3UgJbmskbozHdqi7Jh1a/RyL701m2lbmv9TFHvZ1/R3YZOOLguoHRcHwxJVoJnjFKWiDdb00nY/wYUsSeMJIdd7bjS95gPEQiM+3GaKASo9Ped3ggtEACO5j03kIOB5EPgELc8w118V8ZxT3OEni3Lp6cDzzMNjnwInHwqy7LtuYYAPeMH6bYhDwF2LMmRVgwjVPAJaeLFcICDHIIP5a0Fgrv0JnkvG1b9CN51I68ozRFU/RxrNhXcgyt3v7/mHte6qyqv1a/OF7JNLwP5rvd/WTDdf3Vt2d2o3Zp7pWaV3FO9+Z0E7/fz4O2jEOZumvEIi1xQa4hlWVCFIgfwAarUpYFYnh/rXqIaJe+spzKqdPHvfF3BVzFVA7mXc815M8d35zcrK06JxX/ixUThBxW0ug3gKrqUBWGZC94+j96qsVJ8XnlN17GMLwVcbyHAAVfm31CurlwIFdttI6ahZVDP7boe8G6CKODAmQnB78no/35Xzy1XYiBFDIvfd8RnoJvW6pYhBCG0NQkGouJlQghp8bQpfntckA1y7UgEDr9WLezk4CJMw0/hLnNEgADC5XIrXG4DLOOSdD6/BIniImBV04/ALq9nO87z2s3QbVyERffUcm4zL5mBDpa2Os/TN51O615xgj187Pn5olOM4EX2KGmCILSNEALsTqemrxGfI7D455ovGoeXDNiznNsIzdwROOyeLpTcU2XbOZ54BZdbIbg0R1IliMAOnDos6XD5vDmCG4z2UlkhnM4R3Oc+pkIQ3bnCxHsAN++d5wgIFxjNQ+D0aISLaISy3sDPCyM08kdgRFfeMZqHKX1gCD7BhTv3w0VgF87QDxcBnkweJALHOfMFb/SwnPI8LATuAqvu9QPoQnqACN58QfJuCmz1ISJ410V2bQ8RgTkgHBAOCLtC2MJIdccIONl8H1EjSHo5GWHzRhXYE6dXUUVSBKZaLC72R64hqLh3SkRo4yuEWFOYBCgRmLtSXdfndoJEhLmhAq4ch/0Tz2rRuc2cLRKB6Q2cK/R5KBZY9A8wdKz55k12g955MLfKAG75kUclAUEL7011EUwudBsUiYCv4BZBygNmYd8ZdEo+RpqGdnDDkRaPIJ2GrncRrHCQnsCnvCON85cxxnlmk5HqvAr77yvzQQRmiXCk9ZBnuoALm5iLwM+CKUQnUgoChBD/aRRCeSYsELBBkjVchA6Hj5E3/XePFbcZ0nplzm9J9CbenkHSudxFAPiCsotwpNqzHjbA9Owau0I4msyA7zYsh84DVtUTxK4JcsgLui3JyvoZAFBvkYOqXsLqmM6xYHvHGGdS845l9yrB9E65qul9N6G82fEuwRaMrntcGsxfq2BNHWm8v19wbuq/TcmWg+sDeqe0LnsedVsyw2eWhkBeFVzhu0nC6pifHy9M+BNhpcb6byq/uk3Q4r+OgOPMhW+zkioEtGScxJ7ZjvjJUiZaR3goateuFpoxDxPBaoG5Fn0bVUCRfcoKtv/saN9J2lRBBKhk3QC/cwUQgBIVhP/7ltUUm0tVRL394AiOGppP/GEL2EEHHXTQQQcddNBBBx20H/0/CzGPVR6JzKEAAAAASUVORK5CYII=;" vertex="1" parent="1">
          <mxGeometry x="640" y="70" width="149.23" height="200" as="geometry" />
        </mxCell>
        <mxCell id="kuDSRMg1rkkwXvvgDkXc-15" value="" style="endArrow=block;startArrow=block;endFill=1;startFill=1;html=1;rounded=0;" edge="1" parent="1">
          <mxGeometry width="160" relative="1" as="geometry">
            <mxPoint x="560" y="130" as="sourcePoint" />
            <mxPoint x="650" y="130" as="targetPoint" />
          </mxGeometry>
        </mxCell>
      </root>
    </mxGraphModel>
  </diagram>
</mxfile>
